<?xml version="1.0" standalone="no"?>
<!DOCTYPE svg PUBLIC "-//W3C//DTD SVG 20010904//EN"
 "http://www.w3.org/TR/2001/REC-SVG-20010904/DTD/svg10.dtd">
<svg version="1.0" xmlns="http://www.w3.org/2000/svg"
 width="8000.000000pt" height="4500.000000pt" viewBox="0 0 8000.000000 4500.000000"
 preserveAspectRatio="xMidYMid meet">

<g transform="translate(0.000000,4500.000000) scale(0.100000,-0.100000)"
fill="#000000" stroke="none">
<path d="M9407 35609 c-86 -20 -162 -77 -211 -158 -30 -49 -39 -79 -61 -207
-118 -677 -381 -1229 -775 -1625 -186 -186 -342 -301 -573 -419 -288 -148
-564 -227 -956 -274 -178 -22 -261 -70 -327 -190 l-29 -51 -3 -6955 c-2 -4962
0 -7009 8 -7145 80 -1383 538 -2725 1328 -3885 622 -914 1446 -1693 2387
-2257 183 -110 182 -109 490 -278 138 -75 288 -159 335 -185 101 -57 548 -304
605 -335 22 -12 112 -62 200 -110 88 -48 185 -101 215 -118 30 -16 89 -48 130
-72 109 -61 263 -146 355 -195 44 -24 85 -46 90 -50 6 -4 102 -58 215 -120
487 -267 519 -285 915 -505 77 -42 232 -128 345 -190 113 -62 225 -124 250
-138 25 -13 239 -132 475 -262 991 -547 914 -510 1029 -501 76 7 111 22 341
151 72 40 202 112 290 160 88 48 198 109 245 135 127 71 346 192 735 405 88
48 189 104 225 125 36 20 90 51 120 67 30 17 233 128 450 248 217 120 438 242
490 270 117 64 919 507 1050 580 156 87 353 196 565 312 993 546 1099 607
1349 773 224 148 516 363 636 466 14 12 59 50 100 84 398 329 858 820 1202
1280 810 1086 1327 2392 1478 3740 47 418 45 114 45 7510 l0 6975 -28 56 c-66
130 -155 185 -332 205 -305 35 -495 81 -745 177 -391 151 -741 417 -1000 762
-273 361 -466 833 -556 1355 -17 102 -35 173 -52 208 -32 65 -111 140 -178
167 -49 20 -74 20 -6439 22 -3719 0 -6406 -3 -6428 -8z m6672 -2884 c94 -47
149 -148 137 -252 -7 -64 -24 -100 -72 -152 l-34 -38 146 -152 c80 -83 151
-151 157 -151 6 0 19 -7 29 -17 16 -14 18 -34 18 -190 l0 -173 29 0 c94 0 164
-80 140 -162 -11 -39 -56 -88 -81 -88 -10 0 -18 -3 -18 -7 1 -5 65 -75 144
-157 l143 -148 26 45 c69 118 207 185 357 175 128 -9 251 -93 314 -213 29 -56
31 -67 31 -165 0 -93 -3 -112 -27 -162 -47 -100 -138 -181 -241 -214 -36 -11
14 -13 358 -11 l400 2 5 225 c3 151 9 232 17 246 20 35 71 73 108 80 26 4 42
18 68 56 l35 50 -38 34 c-105 95 -113 263 -17 362 123 129 329 99 410 -58 25
-49 28 -63 24 -126 -4 -82 -35 -145 -89 -187 l-31 -25 34 -47 c24 -33 46 -51
73 -61 53 -18 85 -43 107 -84 17 -31 19 -60 19 -252 l0 -218 466 0 c439 0 465
-1 460 -17 -3 -10 -35 -74 -71 -143 -36 -69 -112 -216 -168 -327 l-102 -203
-292 0 -293 0 0 -1259 0 -1260 33 -3 32 -3 3 -397 2 -398 330 0 330 0 0 -200
0 -200 297 0 c330 0 333 -1 333 -65 0 -24 -16 -54 -64 -116 -35 -46 -136 -182
-225 -301 l-161 -217 0 -180 0 -181 1515 0 1515 0 0 -755 0 -755 -6735 0
-6735 0 0 755 0 755 1515 0 1515 0 0 181 0 182 -191 256 c-106 141 -207 276
-225 300 -38 49 -44 93 -17 123 15 17 37 18 295 18 l278 0 0 200 0 200 350 0
350 0 2 398 3 397 33 3 32 3 0 1260 0 1259 -292 0 -293 0 -10 23 c-6 12 -84
164 -173 338 -89 175 -162 320 -162 323 0 3 209 6 464 6 l465 0 3 229 3 229
31 39 c21 26 46 43 80 54 38 13 56 27 82 64 l34 47 -35 29 c-51 42 -87 120
-87 187 0 107 40 177 128 230 40 23 58 27 122 27 85 0 133 -20 187 -77 95 -99
87 -268 -17 -362 l-38 -34 35 -51 c25 -35 43 -51 58 -51 28 0 82 -36 109 -73
19 -26 21 -45 26 -255 l5 -227 400 -2 c336 -1 394 0 360 11 -91 29 -165 86
-222 171 -63 93 -71 261 -18 367 38 78 106 145 185 182 59 28 74 31 165 31 89
0 106 -3 155 -27 72 -36 124 -79 164 -139 l33 -49 142 150 c136 143 142 150
119 160 -91 38 -110 146 -39 214 23 22 43 30 81 34 l50 5 0 170 c0 145 3 173
17 189 9 10 22 18 29 18 7 0 78 68 158 152 l146 151 -36 40 c-20 21 -44 58
-55 81 -51 112 8 268 123 325 63 31 163 29 227 -4z m2174 -9956 c146 -22 313
-108 422 -216 162 -161 246 -409 216 -636 -6 -50 -16 -96 -20 -102 -5 -5 -11
-23 -15 -40 -13 -51 -55 -135 -103 -202 -86 -120 -229 -226 -378 -278 -113
-40 -293 -47 -415 -16 -222 56 -401 199 -506 406 -51 99 -68 183 -69 330 0
120 3 151 23 215 33 103 84 197 151 277 55 66 155 152 178 153 6 0 13 3 15 8
5 10 94 51 163 74 113 38 215 46 338 27z m-2052 -539 c52 -17 114 -43 139 -57
176 -102 307 -267 362 -458 19 -67 23 -103 23 -220 -1 -130 -3 -146 -32 -230
-44 -127 -94 -207 -193 -305 -93 -93 -176 -145 -300 -187 -103 -35 -296 -44
-403 -18 -156 37 -282 110 -389 223 -83 88 -129 165 -170 283 -31 89 -32 102
-33 239 0 125 3 156 23 220 73 233 249 420 470 500 114 41 168 50 298 45 91
-3 127 -9 205 -35z m-6226 -785 c1214 -84 2362 -329 3507 -749 90 -33 467
-184 633 -254 213 -89 648 -300 935 -452 162 -86 540 -303 540 -309 0 -3 -78
-57 -173 -120 -388 -258 -831 -591 -1168 -878 -47 -40 -89 -73 -92 -73 -4 0
-75 34 -159 76 -1252 620 -2587 992 -3978 1109 -158 13 -514 32 -710 38 l-75
2 -3 820 -2 820 257 -7 c142 -4 362 -14 488 -23z m12720 -845 c0 -608 -7 -949
-19 -969 -3 -4 -130 -11 -283 -15 -556 -13 -1008 -58 -1593 -157 -129 -22
-248 -44 -265 -49 -16 -5 -82 -18 -145 -30 -63 -12 -146 -30 -185 -40 -38 -10
-101 -26 -140 -35 -86 -19 -250 -63 -455 -122 -157 -45 -700 -224 -755 -249
-16 -7 -67 -27 -112 -43 -45 -17 -90 -34 -100 -40 -10 -5 -45 -20 -78 -32 -59
-22 -444 -188 -481 -207 -11 -5 -122 -60 -249 -122 -126 -62 -232 -116 -235
-119 -3 -3 -27 -17 -55 -31 -27 -13 -101 -53 -163 -87 -62 -35 -114 -63 -116
-63 -2 0 -52 -29 -111 -65 -59 -36 -109 -65 -112 -65 -2 0 -30 -16 -61 -37
-31 -20 -75 -47 -97 -61 -22 -14 -52 -33 -67 -44 -15 -10 -29 -18 -31 -18 -6
0 -294 -193 -357 -238 -25 -18 -87 -62 -139 -99 -52 -36 -102 -72 -110 -79 -9
-7 -75 -57 -147 -111 -71 -54 -150 -115 -175 -135 -24 -20 -73 -61 -109 -90
-101 -82 -239 -199 -270 -228 -9 -8 -47 -42 -85 -75 -221 -191 -675 -646 -901
-900 -87 -98 -288 -334 -344 -405 -19 -24 -47 -58 -61 -75 -151 -179 -616
-837 -688 -972 -6 -13 -17 -23 -23 -23 -6 0 -98 47 -203 105 -106 58 -197 105
-203 105 -6 0 -12 4 -14 8 -3 7 -124 76 -278 159 -30 16 -91 50 -135 75 -144
81 -179 101 -240 132 -33 16 -62 33 -65 36 -3 3 -14 10 -26 15 -73 34 -254
142 -254 152 0 7 30 58 67 115 37 57 73 113 79 125 7 12 40 61 73 109 34 48
61 93 61 101 0 7 3 13 8 13 4 0 23 24 42 53 19 28 38 54 41 57 3 3 30 40 60
84 30 43 61 88 69 100 33 48 316 422 330 436 8 8 37 44 65 80 27 36 62 79 77
95 15 17 28 33 28 37 0 3 12 20 28 36 15 16 45 50 67 77 22 26 45 52 50 59 6
6 39 45 75 86 36 41 67 77 70 80 3 3 48 52 100 110 88 98 180 195 340 361 36
37 70 73 75 79 6 6 45 43 87 83 42 40 119 113 170 162 250 243 669 604 946
814 40 30 72 59 72 63 0 4 5 8 10 8 6 0 62 38 124 84 185 138 423 306 546 386
63 41 117 78 120 81 13 16 592 363 725 435 39 21 72 40 75 43 14 16 826 421
844 421 3 0 42 17 88 39 46 21 112 51 148 66 36 15 72 30 81 35 8 4 47 20 85
35 38 15 87 35 109 45 22 10 121 48 220 84 99 37 189 71 200 76 11 4 63 23
115 41 52 17 133 45 180 61 47 16 105 35 130 43 25 7 74 23 110 34 352 108
686 197 980 261 80 17 165 35 190 41 551 121 1309 219 1940 249 289 14 374 17
515 16 l120 -1 0 -655z m-12875 -1346 c224 -14 669 -62 901 -98 546 -85 1130
-227 1674 -407 168 -56 573 -205 653 -241 24 -11 78 -33 120 -50 42 -17 119
-50 170 -74 52 -24 95 -44 97 -44 4 0 258 -122 264 -126 2 -2 -115 -121 -260
-266 -221 -220 -403 -412 -586 -618 -17 -19 -52 -57 -77 -85 -25 -27 -48 -58
-52 -67 -3 -10 -9 -18 -13 -18 -4 0 -43 -43 -86 -95 -43 -52 -79 -95 -80 -95
-3 0 -73 28 -100 40 -11 5 -58 23 -105 41 -47 18 -98 38 -115 45 -101 42 -513
180 -625 209 -36 9 -99 27 -140 41 -66 21 -197 55 -270 70 -14 2 -38 9 -55 14
-52 16 -474 99 -610 120 -219 35 -495 69 -605 76 -58 4 -115 11 -128 15 -24 9
-52 65 -129 254 -24 61 -50 124 -58 140 -50 112 -187 560 -225 739 -5 22 -14
61 -20 86 -21 81 -70 361 -70 398 l0 23 143 -6 c78 -3 252 -13 387 -21z
m12790 -202 c0 -28 -55 -291 -85 -407 -75 -290 -169 -564 -288 -835 -60 -139
-177 -379 -186 -385 -4 -2 -63 -9 -131 -15 -1186 -109 -2271 -428 -3315 -974
-412 -215 -786 -452 -1179 -745 -77 -57 -146 -110 -155 -117 -598 -481 -1064
-945 -1482 -1474 -147 -187 -330 -439 -433 -598 -65 -99 -68 -103 -89 -89 -12
8 -67 38 -122 67 -55 29 -104 56 -110 60 -9 7 -624 346 -755 417 -30 16 -98
53 -150 82 -52 30 -120 67 -150 84 -96 52 -110 61 -110 70 0 12 119 194 263
402 446 644 1030 1303 1633 1840 59 52 92 81 174 150 52 44 97 82 100 85 3 3
64 52 135 109 72 57 139 110 150 120 34 27 315 233 400 292 520 362 1074 680
1615 929 725 333 1611 619 2320 750 63 11 135 25 160 30 421 87 1130 157 1688
168 93 2 102 0 102 -16z m-12370 -2012 c433 -54 1011 -189 1475 -344 163 -55
443 -158 468 -173 11 -6 -7 -36 -75 -128 -144 -194 -346 -489 -492 -720 -49
-77 -90 -142 -91 -143 -3 -3 -128 87 -180 130 -85 69 -228 189 -265 222 -60
54 -385 379 -435 436 -131 148 -299 358 -384 480 -28 40 -153 228 -165 248 -6
10 0 12 26 8 18 -3 71 -11 118 -16z m11419 -242 c-34 -49 -195 -259 -221 -289
-13 -15 -41 -48 -63 -75 -150 -183 -462 -493 -669 -665 -16 -13 -34 -29 -40
-34 -6 -6 -31 -26 -56 -45 -25 -19 -47 -37 -50 -40 -47 -52 -542 -382 -682
-455 -21 -11 -38 -23 -38 -27 0 -5 -5 -8 -12 -8 -11 0 -322 -167 -438 -235
-30 -18 -94 -53 -142 -78 -47 -26 -103 -56 -125 -68 -61 -35 -303 -169 -363
-202 -30 -17 -90 -50 -132 -74 -43 -23 -79 -43 -81 -43 -3 0 -65 -34 -138 -76
-74 -42 -168 -95 -209 -117 -41 -22 -133 -73 -205 -112 -145 -80 -167 -93
-345 -191 -69 -37 -127 -71 -130 -74 -3 -3 -25 -15 -50 -27 -25 -12 -67 -35
-95 -51 -27 -16 -108 -60 -180 -99 -71 -38 -258 -141 -415 -228 -157 -87 -310
-171 -340 -188 -30 -16 -65 -36 -78 -44 -13 -8 -63 -35 -110 -60 -48 -25 -114
-62 -147 -81 -46 -26 -75 -36 -123 -40 -58 -4 -71 -2 -133 28 -38 19 -69 38
-69 44 0 21 299 443 424 597 12 14 35 43 51 65 28 36 101 123 204 244 196 230
636 665 901 890 14 12 34 29 45 38 64 55 234 189 320 253 55 41 104 78 110 82
72 56 411 287 421 287 2 0 36 21 76 48 83 54 93 59 168 103 30 17 57 34 60 38
3 3 21 14 40 23 19 10 85 45 145 78 177 97 429 222 585 290 80 34 163 71 185
81 52 23 205 83 325 125 52 19 104 39 115 44 67 32 468 153 708 214 305 78
841 178 985 185 l33 1 -22 -32z"/>
<path d="M15925 31323 c-35 -9 -83 -53 -94 -85 -7 -20 -11 -159 -11 -389 l0
-359 145 0 145 0 0 361 c0 395 -2 407 -60 449 -29 20 -92 32 -125 23z"/>
<path d="M13890 28540 l0 -1260 35 0 35 0 2 -397 3 -398 368 -3 367 -2 0 1660
0 1660 -405 0 -405 0 0 -1260z"/>
<path d="M17230 28140 l0 -1660 368 2 367 3 3 398 2 397 35 0 35 0 0 1260 0
1260 -405 0 -405 0 0 -1660z"/>
<path d="M41523 32535 c-131 -29 -241 -117 -303 -240 -34 -69 -35 -72 -35
-195 0 -120 1 -128 32 -193 45 -95 125 -175 216 -218 69 -33 76 -34 192 -34
116 0 123 1 188 33 316 155 344 602 49 791 -93 59 -227 82 -339 56z"/>
<path d="M47110 32539 c-123 -16 -262 -115 -320 -230 -104 -203 -37 -468 150
-588 83 -54 166 -75 278 -69 79 4 99 9 165 41 53 26 91 54 129 96 88 94 117
174 118 318 0 215 -155 399 -366 433 -65 11 -62 11 -154 -1z"/>
<path d="M59195 32539 c-134 -20 -265 -122 -328 -256 -30 -65 -32 -74 -32
-188 0 -116 2 -122 34 -190 42 -86 129 -176 203 -210 231 -107 494 -20 603
200 32 65 37 87 42 168 9 147 -30 257 -126 354 -57 58 -137 101 -218 118 -75
16 -91 16 -178 4z"/>
<path d="M57170 30085 l0 -2275 350 0 350 0 0 2275 0 2275 -350 0 -350 0 0
-2275z"/>
<path d="M63210 31548 l0 -813 -98 95 c-187 182 -423 308 -707 379 -144 36
-237 44 -429 38 -253 -8 -430 -49 -629 -149 -265 -132 -458 -300 -612 -533
-160 -241 -247 -483 -285 -785 -13 -109 -13 -421 0 -530 36 -291 133 -560 286
-793 80 -123 93 -138 197 -246 136 -138 292 -248 472 -328 204 -92 379 -127
630 -127 264 0 451 38 651 133 187 89 352 216 476 364 l48 58 0 -250 0 -251
355 0 355 0 0 2275 0 2275 -355 0 -355 0 0 -812z m-751 -942 c361 -101 640
-413 722 -806 26 -127 35 -340 20 -466 -16 -130 -36 -209 -81 -321 -132 -330
-384 -550 -722 -630 -98 -23 -324 -23 -426 0 -213 49 -423 180 -558 350 -111
139 -179 282 -225 469 -31 129 -39 403 -14 550 64 394 307 702 653 828 140 51
201 60 377 56 135 -3 175 -8 254 -30z"/>
<path d="M71800 31548 l0 -812 -77 76 c-43 43 -96 92 -118 109 -185 147 -463
267 -716 310 -108 19 -149 21 -314 16 -261 -8 -424 -46 -640 -152 -358 -174
-611 -449 -771 -837 -88 -215 -134 -464 -134 -736 0 -320 57 -598 173 -842
232 -490 630 -804 1143 -906 125 -24 430 -25 569 0 333 59 637 233 847 486
l37 45 1 -247 0 -248 355 0 355 0 0 2275 0 2275 -355 0 -355 0 0 -812z m-815
-928 c142 -31 240 -72 356 -151 212 -144 372 -390 434 -669 26 -118 32 -394
10 -522 -42 -251 -138 -450 -299 -617 -431 -445 -1155 -386 -1518 124 -141
198 -206 403 -215 680 -13 366 81 643 297 869 145 152 322 250 526 290 107 22
303 20 409 -4z"/>
<path d="M27480 29943 l0 -2138 350 3 350 3 0 1449 c0 798 3 1450 8 1450 4 0
15 -17 24 -38 9 -20 40 -89 68 -152 28 -63 57 -128 65 -145 7 -16 42 -95 78
-175 191 -428 412 -922 492 -1100 24 -52 80 -178 125 -280 45 -102 94 -210
107 -240 14 -30 64 -140 110 -245 132 -295 209 -467 223 -497 l13 -28 246 0
246 0 19 48 c18 43 124 283 167 377 10 22 84 189 164 370 81 182 155 348 165
370 61 135 147 329 442 990 181 407 333 744 339 749 5 6 9 -531 9 -1447 l0
-1457 350 0 350 0 0 2135 0 2135 -378 0 -379 0 -208 -467 c-115 -258 -245
-551 -290 -653 -72 -161 -272 -610 -310 -695 -8 -16 -35 -77 -60 -135 -26 -58
-55 -123 -65 -145 -32 -70 -63 -140 -275 -615 -113 -256 -219 -492 -234 -525
-16 -33 -31 -70 -35 -83 -4 -12 -11 -22 -15 -22 -4 0 -41 78 -83 173 -42 94
-99 222 -126 282 -27 61 -97 218 -156 350 -59 132 -116 260 -128 285 -11 25
-67 149 -123 275 -105 235 -175 390 -330 735 -48 107 -105 233 -125 280 -21
47 -79 177 -130 290 -51 113 -103 230 -116 260 -13 30 -58 134 -102 230 l-78
175 -382 3 -382 2 0 -2137z"/>
<path d="M38625 31235 c-274 -47 -501 -158 -691 -338 l-84 -79 0 191 0 191
-350 0 -350 0 0 -1697 0 -1698 350 0 349 0 4 1040 c3 1011 4 1043 24 1136 72
329 264 543 563 630 106 30 340 38 463 15 111 -21 172 -44 267 -100 187 -109
306 -288 363 -546 20 -92 21 -124 24 -1132 l4 -1038 345 0 345 0 -3 1128 -3
1127 -23 108 c-46 216 -108 371 -215 530 -175 262 -461 446 -807 518 -125 27
-456 35 -575 14z"/>
<path d="M44230 31244 c-14 -2 -69 -11 -124 -20 -139 -22 -324 -84 -460 -154
-395 -202 -678 -567 -800 -1032 -84 -325 -85 -732 0 -1063 121 -471 415 -847
823 -1050 270 -135 591 -193 922 -167 247 20 380 50 569 130 381 160 696 510
825 917 7 22 16 48 20 58 7 16 -15 17 -372 17 l-380 0 -27 -63 c-102 -240
-293 -396 -557 -454 -102 -22 -338 -22 -437 1 -167 37 -292 105 -408 220 -116
115 -176 210 -233 364 -131 353 -113 888 38 1205 104 218 286 386 494 458 103
35 191 49 328 49 357 0 620 -154 762 -447 l39 -83 374 0 c350 0 374 1 374 18
0 62 -122 341 -202 462 -61 92 -70 103 -188 220 -206 205 -437 322 -760 387
-108 22 -156 26 -360 28 -129 2 -246 1 -260 -1z"/>
<path d="M50265 31243 c-238 -32 -449 -109 -640 -233 -109 -71 -176 -127 -267
-224 l-78 -81 0 248 0 247 -350 0 -350 0 2 -2502 3 -2503 348 -3 347 -2 0
1052 0 1052 88 -87 c266 -265 574 -413 932 -448 297 -28 574 19 827 141 464
223 779 642 888 1182 133 662 -37 1313 -450 1723 -239 237 -547 390 -878 434
-74 10 -357 13 -422 4z m310 -632 c91 -25 241 -93 310 -141 186 -128 331 -326
401 -550 52 -163 69 -444 40 -630 -45 -286 -185 -541 -384 -703 -454 -369
-1121 -273 -1453 208 -180 260 -246 612 -183 973 39 226 147 432 306 588 146
143 316 232 523 273 28 5 120 8 205 7 121 -3 173 -8 235 -25z"/>
<path d="M53985 31235 c-105 -16 -291 -71 -388 -114 -439 -197 -771 -604 -896
-1099 -56 -221 -73 -574 -38 -812 89 -605 427 -1086 929 -1320 292 -136 646
-174 983 -105 269 56 527 197 733 402 l112 113 0 -248 0 -247 355 3 355 2 0
1695 0 1695 -355 0 -355 0 0 -240 c0 -132 -2 -240 -5 -240 -2 0 -24 21 -47 47
-68 74 -108 112 -178 168 -189 150 -377 237 -625 291 -108 23 -453 29 -580 9z
m581 -606 c293 -51 543 -232 703 -507 148 -254 190 -636 107 -965 -97 -381
-377 -672 -731 -762 -527 -134 -1044 164 -1218 700 -45 138 -60 245 -60 420 0
287 55 486 189 685 149 223 385 379 649 428 70 13 289 14 361 1z"/>
<path d="M66135 31244 c-383 -58 -677 -202 -922 -455 -301 -310 -458 -699
-479 -1189 -35 -811 377 -1496 1055 -1755 360 -136 822 -122 1171 37 174 80
313 178 453 321 l97 99 0 -246 0 -246 355 0 355 0 0 1695 0 1695 -355 0 -355
0 0 -240 c0 -132 -3 -240 -7 -240 -5 1 -30 27 -58 58 -145 167 -384 325 -600
397 -164 55 -245 67 -470 70 -115 2 -223 1 -240 -1z m620 -639 c277 -82 496
-267 628 -531 169 -336 166 -809 -8 -1154 -233 -463 -760 -674 -1237 -496
-247 93 -465 300 -578 549 -106 235 -138 590 -75 859 89 385 373 687 730 776
122 31 119 31 290 27 139 -2 172 -6 250 -30z"/>
<path d="M33000 30162 c0 -674 4 -1077 11 -1148 63 -636 413 -1064 986 -1208
192 -48 454 -60 634 -30 270 45 541 182 705 356 l64 68 0 -195 0 -195 350 0
350 0 0 1695 0 1695 -350 0 -350 0 0 -1012 c0 -843 -3 -1028 -15 -1104 -50
-307 -190 -513 -430 -629 -142 -68 -200 -80 -410 -79 -152 0 -192 3 -257 22
-321 89 -519 326 -573 687 -12 84 -15 263 -15 1108 l0 1007 -350 0 -350 0 0
-1038z"/>
<path d="M41270 29503 l0 -1698 350 0 350 0 0 1698 0 1697 -350 0 -350 0 0
-1697z"/>
<path d="M46830 29503 l0 -1698 350 3 350 3 0 1694 0 1695 -350 0 -350 0 0
-1697z"/>
<path d="M58920 29503 l0 -1698 350 3 350 3 0 1694 0 1695 -350 0 -350 0 0
-1697z"/>
<path d="M67863 27135 c-17 -8 -201 -91 -410 -186 -208 -94 -468 -211 -578
-261 -110 -50 -225 -101 -255 -115 -30 -14 -176 -80 -325 -147 -148 -68 -278
-126 -287 -129 -17 -6 -18 -40 -18 -516 l0 -510 78 29 c76 28 267 103 552 215
366 144 476 187 625 245 88 34 274 107 413 162 l252 100 0 564 c0 310 -3 564
-7 563 -5 0 -22 -7 -40 -14z"/>
<path d="M58940 25333 l0 -978 -27 40 c-184 276 -495 480 -858 562 -137 30
-415 42 -576 24 -117 -14 -300 -57 -402 -95 -612 -231 -1045 -796 -1176 -1536
-102 -580 -42 -1188 164 -1659 105 -242 240 -440 418 -616 139 -136 264 -226
432 -310 254 -126 470 -175 774 -175 344 0 602 69 844 227 155 101 304 249
386 383 l21 35 0 -297 0 -298 755 0 755 0 0 2835 0 2835 -755 0 -755 0 0 -977z
m-538 -1685 c120 -40 203 -91 299 -187 87 -87 138 -162 177 -261 105 -267 92
-634 -31 -887 -36 -75 -87 -141 -166 -216 -135 -127 -280 -186 -476 -194 -239
-11 -415 55 -570 211 -105 106 -169 216 -211 369 -22 77 -27 121 -31 262 -8
254 22 401 114 564 103 181 276 308 485 356 101 23 313 14 410 -17z"/>
<path d="M29145 26123 c-627 -38 -1157 -256 -1463 -602 -201 -226 -308 -455
-359 -761 -19 -119 -22 -424 -4 -535 38 -243 119 -444 240 -595 129 -162 271
-293 426 -393 181 -116 555 -271 1057 -438 223 -74 399 -143 546 -215 205
-101 288 -194 314 -350 14 -80 0 -182 -33 -246 -45 -89 -161 -169 -288 -198
-75 -18 -233 -16 -309 4 -208 53 -338 208 -372 444 -5 37 -10 70 -10 75 0 4
-361 7 -801 7 l-802 0 8 -91 c30 -389 199 -773 450 -1024 282 -282 658 -471
1115 -561 241 -48 664 -68 917 -45 848 78 1482 546 1667 1231 69 256 75 568
16 825 -13 60 -73 211 -108 274 -108 197 -345 431 -576 570 -146 88 -477 234
-766 338 -477 171 -568 207 -725 284 -197 96 -323 209 -361 322 -26 78 -16
227 19 299 57 117 171 186 322 195 206 13 400 -84 478 -239 27 -53 56 -168 57
-220 l0 -28 816 0 817 0 -7 97 c-13 193 -74 426 -157 601 -130 275 -362 516
-665 691 -362 208 -922 317 -1459 284z"/>
<path d="M46256 25792 c-79 -220 -194 -538 -306 -842 -21 -58 -91 -249 -155
-425 -64 -176 -130 -356 -146 -400 -17 -44 -48 -129 -69 -190 -21 -60 -78
-216 -125 -345 -77 -209 -144 -394 -250 -685 -18 -49 -60 -164 -93 -255 -87
-238 -154 -421 -292 -800 -192 -529 -427 -1173 -435 -1192 -7 -17 34 -18 783
-18 l791 0 140 427 c78 234 141 432 141 440 0 11 165 13 963 13 l963 0 144
-440 145 -440 793 0 c435 0 792 2 792 5 0 7 -220 617 -506 1400 -53 143 -111
303 -130 355 -18 52 -81 226 -140 385 -58 160 -137 378 -175 485 -39 107 -97
267 -129 355 -32 88 -224 615 -425 1170 -202 556 -384 1057 -406 1115 -21 58
-39 111 -39 118 0 9 -197 12 -872 12 l-873 0 -89 -248z m1245 -2255 l287 -862
-570 -3 c-314 -1 -573 0 -576 3 -6 6 -3 16 165 525 62 190 172 525 244 745
162 494 152 466 158 459 3 -3 135 -393 292 -867z"/>
<path d="M33675 24974 c-305 -46 -578 -166 -813 -356 -383 -311 -636 -789
-722 -1368 -27 -183 -37 -528 -21 -728 47 -583 261 -1088 612 -1441 259 -261
617 -436 979 -481 121 -14 378 -12 495 5 171 24 327 72 466 141 177 88 381
261 479 407 25 37 49 67 53 67 4 0 6 -131 5 -290 l-3 -290 753 0 752 0 0 2150
0 2150 -752 0 -753 0 3 -290 c1 -175 -1 -290 -7 -290 -5 0 -20 19 -34 43 -14
23 -59 81 -101 129 -212 242 -531 404 -881 447 -122 15 -399 12 -510 -5z m907
-1308 c315 -61 554 -325 608 -671 16 -100 13 -325 -4 -427 -56 -311 -243 -540
-521 -633 -108 -37 -294 -46 -411 -21 -239 52 -452 238 -542 474 -83 215 -93
508 -26 738 84 292 294 484 599 548 48 9 229 5 297 -8z"/>
<path d="M66725 24983 c-171 -15 -383 -59 -548 -114 -710 -237 -1200 -814
-1336 -1570 -36 -198 -44 -326 -38 -578 7 -311 37 -500 118 -744 75 -229 231
-509 374 -673 6 -7 55 -58 110 -114 327 -333 786 -540 1310 -591 175 -17 528
-6 679 20 225 40 398 94 589 185 528 249 905 694 1056 1243 10 39 17 74 13 77
-3 3 -362 6 -797 6 l-792 0 -47 -74 c-110 -175 -278 -265 -492 -266 -186 0
-316 52 -440 174 -110 110 -175 264 -191 449 l-6 77 1421 0 1420 0 9 68 c4 37
8 177 7 312 -1 265 -17 404 -69 609 -214 847 -894 1410 -1809 1500 -100 10
-444 13 -541 4z m430 -1199 c198 -41 366 -178 426 -348 16 -47 38 -161 39
-203 0 -10 -140 -13 -665 -13 l-665 0 6 28 c36 155 102 282 198 378 156 157
394 214 661 158z"/>
<path d="M71360 24983 c-102 -9 -302 -45 -408 -74 -438 -116 -793 -383 -966
-727 -47 -94 -90 -224 -112 -337 -23 -126 -15 -423 15 -542 45 -179 116 -306
246 -442 230 -240 490 -359 1055 -485 723 -161 895 -230 938 -375 44 -144 -42
-275 -214 -328 -80 -24 -273 -24 -364 1 -185 48 -328 170 -374 316 -8 25 -17
57 -20 73 l-6 27 -727 0 -726 0 6 -75 c19 -223 131 -495 282 -690 301 -386
785 -638 1380 -717 156 -20 638 -18 791 5 708 104 1199 472 1346 1009 20 74
23 105 23 298 -1 235 -14 322 -72 467 -89 223 -280 428 -538 576 -172 98 -520
209 -945 301 -358 77 -568 150 -651 224 -63 56 -79 92 -79 175 0 79 29 139 88
184 137 103 458 95 631 -17 97 -63 179 -187 206 -312 l5 -28 680 0 680 0 -5
28 c-38 228 -81 378 -148 523 -204 440 -590 752 -1086 879 -194 49 -313 62
-606 65 -154 1 -300 1 -325 -2z"/>
<path d="M40336 24970 c-443 -51 -793 -243 -1078 -590 l-37 -45 -1 303 0 302
-750 0 -750 0 0 -2150 0 -2150 750 0 750 0 0 1193 c0 1271 1 1302 49 1440 51
146 145 275 258 350 56 38 169 83 245 98 101 20 279 15 372 -10 139 -37 259
-114 339 -219 93 -121 140 -251 157 -437 7 -71 10 -520 8 -1263 l-3 -1152 753
0 753 0 -4 1388 c-3 1497 -1 1427 -57 1682 -57 265 -190 553 -329 717 -254
297 -536 461 -901 524 -133 23 -405 32 -524 19z"/>
<path d="M53278 24965 c-205 -25 -343 -66 -523 -156 -202 -101 -398 -258 -517
-416 l-43 -56 -3 301 -2 302 -750 0 -750 0 0 -2150 0 -2150 750 0 749 0 4
1248 3 1247 22 80 c51 182 145 319 280 409 169 112 437 143 654 76 203 -63
364 -241 431 -478 l22 -77 3 -1252 2 -1253 755 0 755 0 0 1283 c0 1274 -4
1457 -35 1655 -73 457 -276 828 -592 1083 -307 247 -757 359 -1215 304z"/>
<path d="M64150 24964 c-411 -57 -800 -293 -1091 -659 l-84 -106 -3 371 -2
370 -755 0 -755 0 0 -2150 0 -2150 753 2 752 3 5 1050 c6 1147 4 1095 66 1251
57 146 148 244 289 314 179 89 310 110 718 117 l307 6 0 798 0 799 -52 -1
c-29 -1 -96 -7 -148 -15z"/>
<path d="M27450 16175 l0 -2705 748 2 747 3 3 2703 2 2702 -750 0 -750 0 0
-2705z"/>
<path d="M30200 18295 l0 -525 -265 0 -265 0 0 -625 0 -625 264 0 265 0 4
-842 c3 -728 6 -857 20 -947 45 -281 119 -483 245 -676 52 -79 199 -231 282
-292 131 -95 310 -175 503 -223 218 -54 310 -61 800 -67 l447 -5 0 643 0 644
-273 0 c-233 0 -280 3 -330 18 -72 22 -127 71 -158 140 l-24 52 -3 778 -3 777
391 0 390 0 0 625 0 625 -387 2 -388 3 -3 523 -2 522 -755 0 -755 0 0 -525z"/>
<path d="M38795 17819 c-212 -20 -393 -72 -590 -169 -292 -145 -508 -339 -694
-625 -173 -266 -286 -570 -343 -930 -20 -124 -22 -176 -22 -465 0 -286 3 -342
22 -470 160 -1031 827 -1703 1727 -1737 399 -15 734 79 1006 282 99 74 228
206 288 295 l41 62 2 -294 3 -293 750 0 750 0 3 2148 2 2147 -755 0 -755 0 -1
-292 c0 -231 -3 -289 -12 -274 -7 10 -42 58 -79 106 -225 294 -587 477 -1012
510 -139 11 -205 11 -331 -1z m836 -1324 c193 -39 389 -189 486 -371 88 -166
119 -322 111 -556 -11 -278 -85 -465 -250 -625 -158 -153 -350 -223 -578 -209
-199 11 -340 75 -480 215 -114 115 -174 221 -214 375 -46 174 -46 424 -2 601
109 429 484 660 927 570z"/>
<path d="M45385 17824 c-202 -12 -374 -54 -569 -139 -67 -29 -215 -123 -291
-185 -79 -65 -176 -172 -234 -259 l-36 -54 -3 291 -2 292 -750 0 -750 0 0
-3175 0 -3175 750 0 750 0 0 1321 0 1321 66 -88 c206 -277 518 -465 879 -530
141 -26 491 -26 620 0 371 74 663 228 911 481 440 449 658 1138 605 1915 -22
322 -76 569 -182 830 -250 620 -754 1041 -1359 1134 -101 16 -306 26 -405 20z
m-147 -1335 c123 -31 224 -91 328 -194 184 -182 252 -385 241 -720 -4 -139 -9
-173 -35 -260 -70 -239 -204 -406 -407 -507 -116 -57 -183 -72 -330 -72 -239
-1 -405 69 -563 239 -157 168 -230 399 -219 695 11 304 101 511 289 670 190
160 441 214 696 149z"/>
<path d="M49536 17819 c-269 -23 -538 -114 -756 -254 -366 -235 -634 -595
-780 -1050 -104 -322 -125 -474 -125 -895 1 -276 4 -333 23 -459 80 -508 267
-911 572 -1225 201 -208 410 -340 683 -431 152 -51 296 -75 482 -82 392 -14
726 80 996 282 101 75 233 212 289 298 l40 61 0 -297 0 -297 753 2 752 3 3
2148 2 2147 -755 0 -755 0 -2 -291 -3 -290 -45 68 c-64 99 -218 247 -335 325
-212 141 -434 214 -719 238 -142 11 -188 11 -320 -1z m834 -1326 c232 -56 429
-230 521 -458 53 -133 63 -200 64 -410 0 -169 -3 -201 -24 -285 -45 -178 -110
-291 -234 -406 -87 -81 -177 -137 -265 -164 -347 -108 -695 11 -889 304 -102
153 -151 370 -140 616 16 333 126 552 357 705 167 111 401 148 610 98z"/>
<path d="M33130 17145 l0 -625 842 -2 842 -3 -399 -435 c-219 -239 -420 -457
-445 -485 -26 -27 -105 -113 -175 -190 -71 -77 -174 -189 -229 -249 -126 -137
-106 -114 -211 -231 -49 -55 -121 -133 -160 -173 -38 -40 -73 -79 -78 -87 -4
-7 -6 -278 -5 -602 l3 -588 1740 0 1740 0 3 623 2 622 -910 0 c-500 0 -910 3
-910 7 0 7 26 35 295 318 99 105 218 230 265 280 47 49 90 94 96 100 6 5 103
107 214 225 112 118 240 253 285 300 90 94 179 187 433 455 l171 180 1 593 0
592 -1705 0 -1705 0 0 -625z"/>
</g>
</svg>
